<?xml version="1.0" encoding="utf-8"?>
<!-- Generator: Adobe Illustrator 17.0.0, SVG Export Plug-In . SVG Version: 6.00 Build 0)  -->
<!DOCTYPE svg PUBLIC "-//W3C//DTD SVG 1.1//EN" "http://www.w3.org/Graphics/SVG/1.1/DTD/svg11.dtd">
<svg version="1.1" id="Layer_1" xmlns="http://www.w3.org/2000/svg" xmlns:xlink="http://www.w3.org/1999/xlink" x="0px" y="0px"
	 width="1500px" height="200px" viewBox="0 0 1500 200" enable-background="new 0 0 1500 200" xml:space="preserve">
<path fill="#FFFFFF" d="M1500.048,199.98v-56.67c-6.717,4.975-13.547,9.809-17.078,17.953c-0.157,1.727-0.46,3.297-0.566,5.133
	c-0.598,0.844-1.212,1.65-1.857,2.42c-0.244-2.176,0.205-4.789,0-6.901c-0.212-1.082-0.598-1.923-0.897-2.863
	c1.739-0.045,2.6-0.947,3.709-1.624c0.382-0.385,0.736-0.79,1.105-1.21c0.295-0.308,0.967-0.982,0.665-1.316
	c-0.47-0.016-0.665,0.825-1.035,1.149c-0.685,0.43-1.251,1.079-1.896,1.589c-0.302,0.148-0.791,0.289-1.035,0.193
	c0.559-0.404,1.086-0.825,1.562-1.265c0.315-0.552,1.173-0.902,1.141-1.615c-0.46-0.196-0.585,0.385-0.848,0.581
	c-0.334,0.157-0.627,0.395-0.967,0.597c-0.646,0.334-1.211,0.79-1.964,1.053c-0.44,0.196-0.948,0.238-1.6,0.202
	c-0.736-0.225-1.231-0.745-1.613-1.332c-0.685-1.29-1.035-2.87-1.376-4.478c0.106-4.552-2.211-7.164-4.406-9.668
	c-0.508-1.175-1.299-2.077-1.739-3.361c1.231,0.844,2.616,1.605,4.2,2.157c0.579,0.613,1.105,1.281,1.507,2.106
	c0.212,2.517,1.495,3.948,1.549,6.49v1.072c0.138,0.719,0.382,1.457,0.547,2.176c0.1,0.077,0.189,0.167,0.189,0.318
	c0.244,0.234,0.566,0.366,0.759,0.629c0.665,0.125,1.331,0.896,1.896,0.697c0.087-0.44-0.653-0.52-0.861-0.819
	c-0.144-0.299-0.408-0.456-0.566-0.703c-0.547-1.332-1.495-2.449-1.543-4.064c-0.315-1.499-0.547-3.053-0.877-4.658
	c-0.508-1.123-1.094-2.196-1.796-3.107c-1.437-1.361-3.673-2-5.071-3.386c-1.463-1.807-2.587-3.897-4.412-5.29
	c-0.051-0.209,0-0.254-0.138-0.501c-1.006-0.006-1.141-0.937-1.844-1.271c-1.864-0.697-4.532-0.96-6.904-1.008
	c-1.883-0.774-4.181-0.809-6.521-0.677c4.676-7.315,10.841-17.022,12.091-17.24c0.665-0.106,2.141-0.498,2.706-0.77
	c2.179-1.062,3.69-2.966,4.638-4.301c0.877-1.21,2.227-1.868,2.951-3.229c0.263-0.517,0.244-1.165,0.672-1.791
	c0.47-0.684,1.633-1.332,2.667-2.086c1.015-0.77,1.934-1.528,2.844-2c2.022-1.018,3.728-1.361,5.156-2.95
	c0.736-0.79,0.803-1.66,0.177-2.147c-0.759-0.6-3.426,0.356-4.274,0.684c-1.141,0.449-2.423,1.245-4.075,1.772
	c-0.614,0.202-1.318,0.414-2.109,0.835c-0.421,0.247-1.527,1.107-1.777,0.957c-0.099-0.051-0.334-1.079-0.382-1.2
	c-0.212-0.472-0.508-0.809-0.459-1.184c0.019-0.674,1.035-1.746,1.408-2.481c1.37-2.687,2.931-3.659,5.039-5.765
	c0.967-0.957,2.744-2.722,2.43-4.263c-0.125-0.555-0.759-1.117-1.639-1.159c-1.125-0.026-2.022,1.194-2.529,1.65
	c-0.598,0.536-1.389,1.175-2.121,1.939c-0.986,1.001-2.43,2.581-3.834,3.149c-1.408,0.552-0.579-0.745-0.157-1.823
	c1.022-2.52,2.179-3.072,3.905-5.238c0.929-1.175,3.156-4.686,1.312-5.582c-1.389-0.684-2.738,0.738-3.265,1.265
	c-0.527,0.526-0.929,1.29-1.581,1.939c-0.948,0.921-3.674,3.605-4.2,3.194c-0.039-0.026,0.877-1.579,1.671-2.606
	c0.382-0.51,1.424-1.685,1.915-2.741c0.614-1.322,0.842-3.229-0.665-3.528c-1.796-0.34-3.378,2.308-4.375,3.492
	c-0.633,0.79-1.161,1.538-1.726,2.218c-0.56,0.745-1.543,1.345-1.915,2.029c-0.47,0.886-0.402,1.351-0.685,2.263
	c-0.087,0.263-0.723,2.51-0.986,1.781c-0.717-1.868-2.404-5.81-5.55-4.895c-2.022,0.571,0.119,3.447,0.244,5.091
	c0.106,1.098-0.334,1.711-0.282,2.712c0.058,0.947,0.598,2.366,0.527,3.55c-0.157,1.878-1.318,3.483-1.527,5.117
	c-0.125,1.306,0.421,2.667,0.382,4.105c0,1.018-0.401,2.186-0.803,3.072c-1.376,2.911-8.524,10.975-10.301,13.231
	c-4.709,5.954-10.313,11.353-15.832,16.653c-3.069,2.956-5.586,6.378-8.009,9.861c-1.844,2.613-3.623,6.641-6.006,8.801
	c-1.896,1.682-4.13,3.017-6.36,4.375c-2.812-12.756-10.07-21.041-15.555-31.165c0.212-1.001-0.441-1.139-0.276-2.157
	c-0.388-1.001-2.06-1.939-1.864-2.696c0.861-1.287,1.601-3.351,1.173-5.274c5.116-9.537,8.662-21.066,15.588-28.452
	c0.759-0.86,2.022-1.342,2.832-2.196c0.986-0.992,1.456-2.571,2.51-3.736c1.533-1.692,3.673-2.985,4.885-4.59
	c0.829-1.14,1.054-2.632,1.726-3.72c0.842-1.332,2.629-2.196,3.018-3.508c0.46-1.326,0.566-4.93-2.462-4.651
	c-2.109,0.202-2.391,3.922-4.091,4.044c-8.048-3.624,1.279-20.485-4.795-21.381c-1.581,1.072-0.231,5.267-1.112,7.136
	c-0.579-5.73-0.276-13.164-4.846-13.783c-1.251,0.225-0.087,1.287-0.244,1.839c-0.739-0.456-1.706-2.061-2.654-0.973
	c0.441,5.887,3.163,9.37,2.022,15.417c-2.462-2.741-7.482-8.686-9.398-6.818c0.421,2.289,3.146,3.341,4.622,5.377
	c0.627,0.835,1.244,2.074,1.944,3.101c2.478,3.711,1.601,6.112,1.092,11.527c-0.315,3.38-0.177,7.1-0.81,8.933
	c-1.264,3.691-4.426,7.482-7.013,10.958c-3.741,4.946-7.961,9.228-12.071,13.494c-0.665-1.159-1.331-2.308-2.211-3.258
	c-0.739-2.86-1.581-5.588-2.693-8.082c-0.454-2.982-0.871-5.974-3.246-7.01c-3.78,3.624,0.138,9.687-0.231,14.001
	c-1.231-2.151-4.386-0.542-4.603,1.634c-0.665-0.677-0.653-1.502-2.285-1.22c-0.401,0.244-1.876,0.507-1.934,1.701
	c-0.842-0.424-1.864-0.019-2.021,1.21c-1.193,0.019-2.725,0.299-2.404,2.369c0.614,4.096,3.635,10.265,6.762,11.616
	c0.672,0.912,1.27,1.929,1.883,2.931c-0.051,0.051-0.087,0.112-0.138,0.167c-2.096-0.308-3.69-1.184-6.1-1.133
	c0.508,5.155,0.157,9.527-0.627,13.456c-0.37,0.055-0.739,0.125-1.131,0.071c-0.54-0.055-1.263-0.693-2.298-0.825
	c-0.598-0.055-1.934,0.597-2.109,0c-0.495-1.801,1.231-2.873,1.37-3.248c-0.614,0.196-1.035,0.526-1.562,1.229
	c-0.212,0.299-0.861,1.586-1.475,1.332c-0.579-0.225-0.459-1.059-0.422-1.579c0.087-0.937-1.27,2.667-1.915,2.125
	c-0.514-0.459,0.803-2.16,0.157-2.648c-0.302,0.279-0.302,1.245-0.771,1.489c-0.231,0.106-0.495-0.209-0.633-0.067
	c-0.244,0.282-0.244,0.982-0.489,1.332c-1.022,1.579-2.272,1.249-3.834,0.125c-0.382-0.263-3.146-1.932-1.844-0.687
	c0.302,0.299,1.286,1.3,1.022,1.624c-0.157,0.196-1.95-0.713-1.934-0.729c-0.527,0.177,0.736,0.713,0.56,0.966
	c-0.295,0.411-0.665-0.122-0.948,0.122c-0.189,0.157,1.902,0.912,1.179,1.538c-0.579,0.481-1.809-0.966-2.686-0.395
	c-0.164,0.067,0.453,0.796,0.315,1.473c-0.244,1.156-1.495,1.079-2.706,1.493c-0.665,0.228-1.161,0.703-1.809,1.133
	c-0.302,0.186-0.986,0.552-1.27,0.886c-0.861,0.982,0.861-0.565,1.424,0.209c0.196,0.273-0.723,1.894-0.916,2.106
	c-0.627,0.786-1.527,0.928-2.404,1.621c-0.125,0.096-0.263,0.292-0.388,0.433c-0.032-5.046-1.244-10.249-3.918-15.128
	c-7.836-14.406-24.702-20.392-37.618-13.363c-0.189,0.106-0.334,0.254-0.527,0.359c-1.681-2.95-3.265-5.694-4.406-8.012
	c-8.086-16.374-9.226-16.203-3.728-23.117c1.514-1.878,1.424-5.213,2.622-7.309c1.067-1.859,3.175-2.956,4.3-4.808
	c1.97-3.287-0.861-2.263-2.825-1.762c-4.219,1.001-5.958,6.895-7.08,7.132c-3.834,0.863-0.739-14.749-4.959-20.864
	c-0.382-0.571-2.089-0.34-2.109,0.369c-0.225,4.921,0.81,9.886,0.283,14.846c-2.372-5.239-4.268-8.817-8.186-13.53
	c-4.005-4.783-7.626-2.606-3.583,2.395c2.654,3.255,4.638,6.677,6.203,11.475c-4.834-1.964-7.433-7.116-11.651-9.546
	c-1.173-0.687-4.795,0.289-3.918,1.351c2.022,2.34,9.574,7.283,10.628,11.931c-4.638-1.387-6.868-4.455-11.085-5.559
	c-0.771-0.209-2.021,1.791-1.408,2.282c3.78,3.033,12.567,5.771,14.093,10.509c3.603,11.161,2.951-3.922,15.938,43.805
	c0.106,0.257,0.205,0.449,0.295,0.687c-0.717,1.798-1.263,3.682-1.613,5.64v0.019c-4.814-9.071-19.026-17.179-26.71-14.197
	c-0.489-0.648-1.035-1.265-1.495-1.932c-4.005-5.72-9.044-12.791-11.085-19.513c-0.263-0.912-0.453-2.141-0.382-3.142
	c0.157-1.438,0.803-2.744,0.823-4.019c0.019-1.666-0.823-3.386-0.752-5.264c0.067-1.175,0.723-2.545,0.842-3.473
	c0.177-1.001-0.119-1.669,0.067-2.722c0.302-1.605,2.497-4.256,0.81-5.052c-2.635-1.213-4.57,2.507-5.393,4.282
	c-0.315,0.703-0.614-1.615-0.653-1.878c-0.157-0.912-0.032-1.38-0.334-2.301c-0.263-0.735-1.035-1.428-1.456-2.228
	c-0.408-0.735-0.791-1.528-1.27-2.375c-0.736-1.271-1.809-4.089-3.39-3.942c-1.389,0.141-1.389,2.064-0.999,3.422
	c0.314,1.104,1.067,2.404,1.35,2.931c0.579,1.104,1.193,2.728,1.179,2.76c-0.515,0.35-2.587-2.606-3.288-3.605
	c-0.508-0.722-0.791-1.528-1.173-2.115c-0.408-0.571-1.424-2.112-2.693-1.586c-1.751,0.664-0.189,4.394,0.515,5.669
	c1.264,2.35,2.192,3.017,2.774,5.614c0.283,1.123,0.823,2.517-0.334,1.791c-1.179-0.703-2.234-2.439-2.989-3.518
	c-0.527-0.835-1.16-1.56-1.62-2.131c-0.401-0.526-1.034-1.833-2.022-1.916c-0.791-0.067-1.389,0.433-1.543,0.957
	c-0.459,1.502,0.897,3.451,1.601,4.51c1.6,2.308,2.864,3.431,3.76,6.237c0.244,0.774,0.999,1.964,0.967,2.632
	c-0.019,0.385-0.334,0.668-0.547,1.14c-0.067,0.103-0.402,1.088-0.476,1.133c-0.225,0.132-1.105-0.835-1.456-1.117
	c-0.633-0.523-1.231-0.796-1.719-1.059c-1.376-0.713-2.41-1.66-3.378-2.218c-0.685-0.395-2.911-1.634-3.655-1.117
	c-0.598,0.414-0.598,1.29-0.087,2.16c1.112,1.727,2.529,2.244,4.181,3.463c0.758,0.581,1.443,1.412,2.266,2.301
	c0.81,0.876,1.726,1.621,2.06,2.359c0.314,0.664,0.205,1.306,0.382,1.859c0.515,1.412,1.601,2.218,2.234,3.502
	c0.665,1.438,1.777,3.463,3.548,4.77c0.475,0.318,1.796,0.677,2.266,1.072c1.131,0.902,2.706,4.632,3.41,6.115
	c1.902,4.044,3.623,8.134,5.38,12.204c-1.864,0.228-3.548,0.603-4.638,1.493c-3.972,3.239-6.955,7.267-9.22,11.344
	c0.263-11.607,2.738-18.039-1.395-25.258c-4.638-8.115-23.227-26.619-31.255-34.586c-8.047-7.922-12.402-13.687-17.201-16.001
	c-4.795-2.35-8.134-2.773-8.134-2.773s-5.274-2.947-6.184-0.177c0,0-1.671-0.183-2.022,2.651c0,0-4.325,2.947-2.725,3.711
	c0,0-3.464,0.729-2.391,5.482c1.105,4.779,1.738,8.904,8.397,9.739c6.678,0.844,13.547-2.648,20.803,6.93
	c7.295,9.581,15.462,28.263,19.64,31.097c4.168,2.844,4.413,5.194,3.583,12.037c-0.861,6.843-2.423,24.007-3.147,29.71
	c-0.704,5.701-5.355,6.859-6.078,12.579c-0.058,0.51-0.244,1.043-0.422,1.57h-8.963c3.535-1.615,5.586-5.36,5.586-5.36
	c-1.318,2.212-3.458-1.428-5.48-6.368c0.177-0.623,0.441-1.544,0.723-2.597c2.317,0.376,4.776-1.005,8.501-2.754
	c5.868-2.732-3.583-8.696,1.006-7.896c4.551,0.77,3.847-7.126,3.847-7.126c-0.388,4.722-7.568,4.702-10.365-5.194
	c-1.376-4.895-4.802-8.124-7.948-10.153c-0.244-0.481-0.508-0.957-0.791-1.377c4.219-1.737,1.141-9.187,1.141-9.187
	c1.408,4.536-0.665,6.16-3.985,6.346c-0.087-0.045-0.212-0.106-0.314-0.157c-3.044-1.184-6.591-3.447-10.966-4.484
	c0.019-0.552,0.212-0.957,0.614-1.088c4.005-1.265,0.829-7.482,0.829-7.482c-1.687,4.195-5.135,3.175-8.047,3.274
	c-2.938,0.061-2.587,4.77-5.939,6.079c-3.358,1.3-7.752-1.438-9.423-2.982c-1.681-1.528-2.951-1.775-5.55,3.701
	c-1.389,2.931-2.76,2.035-3.761,0.587c0.422-0.674,0.986-1.255,1.35-1.945c1.581-3.078,2.353-8.564,6.611-8.413
	c-3.536,4.702,5.518,3.219,5.303,0.587c-0.283-3.492,4.657-2.886,6.856-4.571c2.247-1.801-3.025-5.335-4.354-7.193
	c-2.725-3.817-5.255-0.591-8.035-2.905c1.934-3.21,11.914-14.486,7.488-18.075c-8.205,10.942-17.432,20.646-24.123,32.5
	c-0.633,1.114-1.286,2.208-1.915,3.316c-0.212-0.623-0.388-1.271-0.37-1.99c-1.105-2.574-1.161-5.531-2.372-7.967
	c-0.196-0.629,0.459-2.096-0.598-2.385c-3.78-10.811-7.401-21.689-11.406-32.378c0.283-7.578-1.758-14.422-3.793-21.179l0.295-0.292
	l0.422-15.054c0-1.448-0.868-2.728-1.812-3.669c-0.909-0.177-2.141-0.35-2.667,0.703c-1.054,3.184-0.752,6.872-1.809,10.073
	c-0.527,0.039-0.935-0.305-1.27-0.719c-0.653-0.517-1.809-0.571-2.51-0.106c-1.934,3.091-6.415,1.159-7.698,4.712l-0.388-0.411
	c-1.758-4.423-3.565-8.256-5.197-12.685c-0.81-1.098-0.81-3.476-2.919-2.95c-0.861,0.228-1.809,0.693-2.266,1.56
	c-0.282,4.895,1.983,9.023,3.095,13.485c0.527,1.521,2.035,3.794,0.401,5.072c0.051,2.732-1.562,5.004-1.408,7.678l3.515,8.198
	c3.182,2.78,6.749,5.174,9.471,8.368c1.35,3.791,2.561,7.562,3.265,11.581c0.704,8.599,3.037,16.685,3.32,25.284
	c1.408,3.441,2.324,7.036,3.496,10.602c-0.422,1.615-0.791,3.438-1.964,4.616c-0.282-0.491-0.508-1.018-0.704-1.544
	c0.106-0.055,0.157-0.177,0.283-0.122v-0.571c-1.687-1.457-1.745-4.08-4.306-4.308c0-1.862-2.041-1.634-3.095-2.378
	c0.302-1.396-2.022-0.639-1.389-2.279c-0.527-1.046-1.809-0.292-2.51-0.677c-0.125-0.369,0.295-1.406-0.585-1.528
	c-2.211,0.122-4.319-1.509-6.29,0.122c0-3.203-2.561,0.35-3.496-1.114c-0.877-0.055-1.389,0.658-2.109,0.992
	c-0.157-0.472-0.099-1.098-0.685-1.396c-0.508-0.167-0.752,0.299-1.125,0.597c-1.193-0.552-2.199,0.799-3.175,0.921
	c-0.408-0.825,0.276-2.561-1.112-2.5c-1.173,1.027-0.704,2.677-1.173,4.08c-0.585,0.334-0.585,0.912-0.508,1.493
	c-0.35,1.756-1.408-0.404-2.272,0.289c-0.119,0.472,0.231,0.764,0.282,1.107c-0.106,0.122-0.205,0.148-0.315,0.202
	c-3.623-3.419-6.29-6.221-6.434-6.911c-0.225-1.281-1.983-7.277-4.386-10.689c-0.019-0.157-0.058-0.315-0.058-0.472
	c0.058-3.605-5.9-4.722-8.501-6.378c5.743-3.069,24.104-5.264,25.278-12.178c-6.203-2.35-16.018,1.448-21.996,3.3
	c-3.673,1.14-7.433,1.964-11.123,3.078c-2.391,0.713-7.305,4.038-9.542,3.133c-5.724-2.375-13.652,3.28-16.459,7.861
	c-2.077,3.38-5.836,5.836-9.773,8.066c0.164-0.6,0.283-1.194,0.441-1.785c1.006-3.463,2.266-5.463-1.299-7.473
	c-1.231-0.693-2.003-1.57-2.792-2.115c-2.227-1.579-2.773,0.713-2.635-2.809c0.074-2.102-0.1-4.491-2.864-3.473
	c-0.476-4.176-0.771-6.741,0.177-10.872c0.877-3.852-0.051-7.906-1.369-11.556c-1.796-4.882,1.681-13.757-1.902-17.234
	c-2.529-0.225-2.648,8.827-3.037,10.891c-3.703,0.517-4.814-5.521-5.868-7.993c-0.736-1.737-1.527-3.528-2.635-5.078
	c-1.633-2.311-1.665-0.273-3.108-0.783c-1.212-0.42-0.508-3.483-2.667-3.088c-0.476,0.087-1.739,1.907-1.726,1.913
	c-3.252-0.87-1.809,3.618-1.594,5.178c0.177,1.175,0.383,2.289,0.627,3.37c-0.263-0.44-0.402-0.976-0.803-1.345
	c-2.147,2.282-2.089,6.012-1.652,9.96c-2.167-0.112-4.782,0.985-2.78,1.948c1.231,0.597,2.305,1.576,3.339,2.648
	c0.547,4.6,0.723,8.888-2.391,10.939c-1.613-0.218-3.32-0.411-4.914-0.603c-1.462-1.14-2.635-2.581-4.345-3.463
	c-1.35-0.071-5.148-1.149-5.531,0.562c0.909,5.858,8.398,7.042,12.19,11.302c1.054,1.2,1.456,2.536,2.6,3.765
	c1.934,1.342,4.638,1.98,7.257,2.613c1.141,12.666-3.703,22.302-5.48,34.262c-4.219,2.571-8.166,5.482-11.563,9.081
	c-0.422,0-0.823-0.01-1.389,0.035c-2.812,0.167-5.004,3.492-7.977,2c-1.751-0.876-2.141-1.859-3.528-3.033
	c-3.937-3.37-7.151-5.017-11.454-5.794c-1.62-2.536-3.41-4.86-4.94-7.405c0.25-0.087,0.672-0.218,0.723-0.421
	c-0.295-0.623-0.81-0.623-1.299-0.677c-2.845-1.624-5.499-3.833-8.944-3.727c-1.495-0.764-3.195-1.018-4.885-1.265
	c-0.771-0.555-1.652-0.876-2.51-1.229c0.823-1.008,1.16-2.379,0.948-3.826c-0.283-1.859,2.109-9.963-1.212-9.562
	c-1.95-3.938-0.791-11.228-1.035-15.706c-0.125-2.263,0.177-4.834-2.021-6.262c-0.829-0.546-5.274-0.177-5.323-0.257
	c-0.935-1.409,0.401-2.606-1.533-4.192c-1.562-1.271-3.847-1.939-5.217-3.248c-3.008-2.854-8.115-0.247-11.419,0.43
	c-4.011,0.825-8.906,3.017-10.928,6.843c-1.251,2.388-4.011,4.449-4.728,7.004c-0.527,1.923,0.803,3.406,1.105,5.21
	c0.388,2.353,0.283,5.222,0.315,7.774c-0.877,0.424-1.7,0.764-2.754,1.38c-2.832-0.35-5.467-0.35-8.192-0.491
	c-0.665,0.44-1.318,0.902-1.97,1.361c0.98-2.677,2.077-5.306,2.887-8.037c2.305-11.934,8.349-22.283,11.827-33.726
	c4.075-3.441,4.2-9.408,2.686-14.136c-0.334-2.411-3.565-0.851-3.812-3.463c-2.478-0.035-3.41-3.614-6.29-2.491
	c-1.706-1.034-3.886-0.122-5.525,0.465c-0.723-0.87-1.543-1.448-2.622-1.377c-1.771,0.456-0.633,2.683-1.443,3.922
	c-0.327,5.043-1.437,10.583,0.334,15.748c-1.318,6.599-2.886,13.186-5.518,19.323c-4.426,7.7-6.949,16.158-10.195,24.328
	c-1.796-0.035-3.484,0.151-4.94,0.713c0.244,1.502,1.408,2.744,2.989,3.842c-1.665,3.669-3.548,7.229-5.982,10.583
	c-1.357,6.439-5.084,11.915-8.877,17.388c-3.195-1.428-7.614-2.273-10.847-0.937c-0.723,0.308-5.557-1.801-5.566-1.852
	c-0.369-0.876,1.941-5.264,1.896-6.616c-0.093-2.51-1.231-4.754-1.739-7.177c-0.797-3.791-1.137-7.071-1.475-11.055
	c-0.572-6.474-1.694-13.494-1.009-19.513c0.327-2.719,0.202-6.105,1.324-8.647c1.105-2.51,3.709-4.057,5.499-6.038
	c3.426-3.765,6.354-8.872,7.627-13.812c0.327-1.265,2.029-3.001,2.003-4.086c-0.087-2.78-4.426,0.491-4.776,0.876
	c-2.234,2.491-2.686,5.913-5.538,8.105c-3.146-5.37,4.676-15.626-0.81-21.005c-2.773-2.728-4.056,10.705-3.528,11.626
	c-1.95-3.325,1.658-11.302-2.041-14.03c-4.622-1.175-1.671,8.872-2.813,10.74c0.087-0.141-0.35-4.298-0.263-4.789
	c0.263-1.589,0.441-2.526-1.324-2.876c-5.435-0.414-0.553,15.549-3.419,16.197c-0.585,0.112-1.562-10.724-2.016-11.459
	c-2.516-4.086-2.899,7.408-2.899,7.511c0.067,5.511-0.321,10.901-0.321,16.444c0,4.211,1.687,7.999,0.691,12.178
	c-0.218,0.912-0.585,4.298-1.357,4.911c-1.251,0.132-3.214-0.629-3.528,1.184c-0.428,2.395,1.015,8.012-1.838,8.272
	c-1.626,0.16-3.49,1.091-5.262,1.932c-1.286-2.218-2.568-4.439-3.828-6.677c-6.836-12.143-16.22-22.039-24.599-33.087
	c-4.5,3.569,5.692,15.134,7.627,18.364c-2.813,2.369-5.38-0.928-8.192,2.969c-1.331,1.859-6.71,5.463-4.406,7.306
	c2.227,1.765,7.257,1.117,6.955,4.677c-0.205,2.677,9.034,4.215,5.428-0.613c4.306-0.157,5.116,5.438,6.749,8.599
	c0.999,1.932,2.141,3.775,3.655,5.351c2.918,0.51,3.516,0.632,4.464,3.496c0.067,0.215,0.112,0.437,0.183,0.648
	c-0.691-0.931-1.418-1.939-2.581-2.106c-2.813-0.677-5.255,1.781-7.087,2.895c-0.132-0.247-0.396-0.247-0.592-0.343
	c-0.791-0.835-0.585-1.814-0.527-2.789c-0.263-0.138-0.409,0.122-0.598,0.238c-0.388-0.327-0.855-1.043-1.424-0.603
	c0.196,1.342-0.157,2.385-0.941,3.28c-1.028,0.992-2.417,1.088-3.609,0.35c-3.477-1.194-7.746-0.263-10.089,2.805
	c-2.773,0.404-4.532,2.895-7.112,3.614c-0.08,0.029-0.119,0.087-0.189,0.116c-0.051-2.131-0.315-4.346-1.073-6.763
	c-0.752-1.473-0.717-3.932-3.069-3.563c1.324,4.478,1.877,8.715,1.771,12.653c-0.598,1.358-0.797,2.992-1.238,4.385
	c-0.527-0.157-0.877-0.096-1.105,0.067c-0.383-0.62-0.704-1.265-1.073-1.878c0.572-3.386,0.553-7.052-1.028-11.08
	c-0.422-0.835-0.791-1.801-1.299-2.497c0.855-3.309-0.653-7.662-2.372-10.968c-1.231,1.939,0.257,5.473-0.157,7.906
	c0.27,2.622-0.067,4.885-0.132,7.306c-0.125-0.254-0.244-0.507-0.369-0.751c0.106-0.404,0.177-0.809,0.125-1.213
	c-0.678-2.279-1.028-5.123-2.305-6.404c-0.73,0.019-0.855,0.385-0.81,0.854c-1.607-3.916-3.102-7.871-4.426-11.909
	c-2.247-7.248,5.849-10.599,6.881-16.977c1.185-2.815-1.166-4.491-2.365-6.622c-0.909-2.545,0.212-6.14-2.167-7.983
	c-2.221,0.77-2.497-1.964-4.399-1.897c-0.916,0.334-1.118,1.448-1.437,2.218c-1.771,0.658-3.15,2.696-4.603,3.926l0.678,0.815
	c0,2.677-1.915,4.622-1.462,7.537c-5.393,7.662,0.739,16.04,0.784,24.234c0,9.238,1.581,17.873,3.41,26.356
	c-2.706,2.273-6.447,3.878-11.419,4.564c-1.97,0.279-3.96,0.141-5.323-1.255c1.06-0.52,4.859-0.607,4.859-2.343
	c-2.523-1.175-6.209-0.491-8.764-1.682c-0.678-0.122-1.054-0.732-1.758-0.844c-6.936-8.641-13.157-18.495-23.748-21.015
	c-2.234-0.112-4.808,0.292-6.981,0.029c-0.196,0.542-1.318,0.526-1.495,1.053c-6.203,0.79-13.383,1.377-16.465,5.736
	c-2.298,3.422-2.423,8.188-3.108,12.573c-0.633,0.555-1.16,1.184-1.212,2.08c-0.948,0.279-1.376,0.912-2.548,1.079
	c-1.108,0.449-1.713-1.027-2.459-0.238c0.861,2.6,5.151,1.477,6.955-0.035c-0.401,1.868-1.803,3.213-3.703,4.227
	c-0.231,0.334,0.019,0.95,0.138,1.493c-0.646,0.209-0.967-0.141-1.687,0.209c0.521,1.842,2.648,1.018,4.374,0.844
	c-0.401,3.457-2.792,5.775-1.257,10.368c3.134,6.179,6.37,12.117,10.551,16.505c1.238,2.921,1.97,6.205,1.389,8.782
	c-0.087,0.01-0.196,0.01-0.283,0.019c-0.515-1.204-0.884-2.52-1.825-3.39c-1.318-1.454-3.352-1.56-5.217-1.297
	c-0.225,0.064-0.334-0.055-0.527-0.035c-2.305-2.475-4.747-4.834-6.816-7.537c-1.257-1.653-2.163-3.431-2.97-5.267
	c0.225-0.481,0.46-0.966,0.563-1.493c0.807-2.712-2.34-5.219,0.508-7.238c-0.177-2.122-1.899-3.264-2.038-5.396
	c-0.106-1.502-0.755-3.184,0.401-4.378c0-0.892-1.315-0.34-1.212-1.419c0.614-1.239,0.157-2.915-0.385-4.195
	c-0.366-1.608-2.34-0.966-3.214-2.106c0.524-1.018,1.328-2.16,1.379-3.39c3.979-3.894,8.986-7.639,11.499-10.246
	c7.061-7.344,14.812-15.934,23.915-20.793c7.72-4.105,13.633-7.46,20.305-13.488c4.393-4.834-2.121-3.544-3.918-1.708
	c2.128-3.017,8.575-3.361,7.909-8.198c-1.713-1.894-7.621,3.28-12.724,5.017c1.495-2.796,3.828-4.93,6.039-7.158
	c1.957-1.939,4.011-3.544,5.023-6.439c-3.979-5.072-12.116,10.092-15.899,10.114c1.43-2.976,4.005-5.078,5.913-7.8
	c0.986-1.422,1.652-3.213,2.141-4.863c-2.141-2.369-4.445,1.159-5.586,2.491c-9.465-4.571-21.706,26.706-27.331,32.304
	c-9.536,9.495-21.344,16.126-32.406,23.673c-1.176-1.001-2.478-1.852-3.95-2.035c0.119-1.091,1.318-2.879-0.582-3.046
	c-0.298,0.36-0.334,0.819-0.511,1.175c-1.896,2.379-4.513-0.103-6.64-0.815c-2.635,0.677-5.762,1.175-7.99,2.632
	c-1.112,1.14-2.285,1.306-3.48,1.22c3.066-6.782,5.91-13.68,8.064-20.838c2.305-11.934,8.349-22.283,11.818-33.726
	c4.078-3.441,4.21-9.408,2.69-14.136c-0.327-2.411-3.557-0.851-3.815-3.463c-2.478-0.035-3.4-3.614-6.293-2.491
	c-1.694-1.034-3.873-0.122-5.515,0.465c-0.72-0.87-1.546-1.448-2.625-1.377c-1.764,0.456-0.633,2.683-1.44,3.922
	c-0.324,5.043-1.44,10.583,0.334,15.748c-1.318,6.599-2.893,13.186-5.518,19.323c-7.286,12.66-9.385,27.409-18.136,39.465
	c-2.008,9.578-9.285,17.048-14.161,25.502c-0.473,1.22-1.054,2.404-1.674,3.573c0.006-0.151,0.006-0.327-0.039-0.491
	c-0.572,0.844-1.552,2.025-2.819,2.106c-1.035-1.107-2.899-1.579-3.471-2.895l1.099-0.581h-0.441
	c-0.402-0.334,0.039-0.648,0.141-0.982l-1.723-0.151c-1.025-1.483-1.173-3.457-1.774-5.165c-1.315-3.072-4.911-3.531-7.546-3.589
	c-1.063-0.292-1.713-0.774-2.154-1.371c0.35-0.639,0.669-1.265,1.044-1.903c6.052-10.442,9.709-21.84,15.205-32.5
	c2.446-4.773,4.287-11.581,8.047-15.337c3.291-3.245,7.749-4.911,11.454-7.598c5.939-4.298,3.815-8.22,2.564-14.634
	c-0.736-3.8-4.005-4.369-7.299-6.018c-3.629-1.791-5.982,0.177-9.497,1.615c0.282,1.069,0.922,1.807,1.934,2.208
	c-0.967,0.263-2.353,1.634-1.934,2.77c-0.183,0.132-2.763-1.069-4.207-0.401c-4.21,1.923-4.049,3.813-3.841,8.105
	c0.212,4.247,0.986,7.052-0.498,11.135c-1.421,3.922-3.262,7.71-5.438,11.267c-5.435,9.045-12.737,16.695-19.29,24.909
	c-0.482,0.064-0.967,0.141-1.369,0.218c-1.655-0.376-0.672-3.194-2.497-4.237c-1.456-0.613-3.24-0.27-4.603,0.318
	c-2.954,1.579-3.349-3.088-5.975-3.483c-2.812-0.677-5.255,1.781-7.087,2.895c-0.132-0.247-0.396-0.247-0.592-0.343
	c-0.791-0.831-0.582-1.814-0.527-2.789c-0.263-0.138-0.402,0.125-0.598,0.238c-0.388-0.327-0.855-1.043-1.424-0.603
	c0.196,1.342-0.157,2.385-0.938,3.28c-1.025,0.992-2.417,1.088-3.613,0.35c-3.477-1.194-7.746-0.263-10.086,2.805
	c-2.776,0.404-4.532,2.895-7.116,3.614c-3.146,0.931-3.008,4.32-3.799,6.827c-0.524-0.157-0.874-0.096-1.105,0.067
	c-6.007-9.658-10.333-19.943-13.845-30.638c-0.019-0.061-0.01-0.112-0.035-0.177c0.234-1.088,0.315-2.086-0.282-2.86
	c0.077-0.931,0.318-1.791,0.678-2.613c1.099-0.912,2.038-2.074,2.134-3.537c0.122-0.167,0.244-0.327,0.369-0.491
	c0.26,0.01,0.579,0.369,0.842,0.273c1.337-0.459,1.185-2.423,2.285-2.876c0.563-1.072,0.547-2.038,0.369-2.985
	c0.205-0.562,0.421-1.107,0.515-1.711c1.185-2.815-1.166-4.491-2.359-6.622c-0.547-1.509-0.425-3.361-0.688-5.027
	c-0.193-1.14-0.508-2.208-1.485-2.956c-0.238,0.077-0.376-0.01-0.572,0c-0.077-0.196-0.157-0.385-0.401-0.491
	c-0.566,0.966-0.704-0.42-1.302-0.193c-0.01,0.006-0.016,0.006-0.016,0.016c-0.598-0.581-1.14-1.265-2.109-1.229
	c-0.527,0.196-0.8,0.632-1.009,1.133c-1.257-1.191-3.61-1.133-4.242-2.815c-1.514-0.844-3.285-0.263-4.789-1.265
	c-2.028,1.001-2.896-2.228-4.952-1.239c-1.633,0.992-2.944-1.22-4.506,0.449c-0.592-0.597-1.53-1.018-2.423-0.896
	c-1.009,0.491-1.488,1.916-2.353,2.613c-0.688-0.851-1.758-0.963-2.76-0.963c-2.754,0.376-2.337,4.58-5.499,4.526
	c-1.035,3.149-2.864,5.877-5.717,7.315c-1.14,1.512-1.694,3.476-1.934,5.267c-1.166,0.806-2.08,2.542-1.934,3.999
	c1.273,2.423-1.739,4.536-0.402,6.863c-2.625,1.56,0.62,3.669,0.572,5.775c0.263,1.332-0.476,3.088,0.665,3.964
	c0.064,0.664-0.376,1.528,0.228,2c0.983-0.141,0.746,1.538,0.893,2.289c0.302,1.194-2.227,2.179-0.72,3.126
	c0.864-0.501,1.774-1.204,2.67-1.887c-0.019,0.472-0.035,0.912-0.035,1.387c-0.087,3.537,1.915,6.214,1.267,9.44
	c-0.547,2.667,0.282,4.282-2.128,6.002c-1.809,1.265-3.834,2.176-5.83,3.069c-0.177-4.227-1.353-8.301-3.593-11.896
	c-0.964-1.57-2.105-3.037-3.345-4.388c-0.064-2.404-0.035-4.789-0.019-7.193c0.019-4.272,0.141-8.74-1.051-12.872
	c-0.511-1.727-1.312-3.412-2.513-4.808c1.607-2.622,2.382-4.205,4.699-6.449c6.572-6.388,12.871-13.074,19.897-18.986
	c3.548-2.985,7.295-5.765,11.245-8.159c2.584-1.579,3.639-0.546,6.466-1.072c2.757-0.526,5.271-2.805,7.906-1.278
	c3.918,2.263,4.92,3.55,9.452,2.07c1.308-0.44,2.417-0.385,3.092,1.001c1.986-1.069,4.033-2.157,5.544-3.858
	c-0.324-3.916,1.642-7.232,1.941-11.039c-2.661-3.332-6.29-7.957-9.593-10.175c-4.021-2.677-18.342,8.297-22.487,10.175
	c-3.972,1.512-7.337,4.16-10.806,6.548c-4.542,3.146-9.584,5.418-14.478,7.948c-8.488,4.398-16.828,9.581-24.316,15.478
	c-1.86,1.473-3.645,2.985-5.374,4.58c-2.221,2.054-2.041,3.634-3.095,6.317c-0.122,5.739-0.736,11.427-1.552,17.093
	c-1.347,9.44-3.092,18.845-3.172,28.41c-0.016,4.93,0.388,9.652,1.706,14.406c0.334,1.229,0.704,2.077,0.893,2.931
	c-0.045,0.639-0.103,1.271-0.103,1.939c-0.409,0.302-0.116,1.027-0.46,1.38c-0.765-1.123,0.441-2.51,0.254-3.833
	c-0.643-2.17-0.977-4.885-2.189-6.099c-1.105,0.01-0.913,0.774-0.633,1.599c-1.844-1.184-3.057-4.895-5.181-4.712
	c-1.038,0.796,0.366,2.587,0.864,3.341c0.315,1.249,0.64,2.459,0.948,3.701c0.402,5.495-0.739,10.371-3.876,14.005
	c-3.345-4.754-4.943-11.09-9.552-14.9c-9.465-7.81-17.075-17.494-24.065-27.55c1.247-0.985,2.491-1.984,3.786-3.142
	c4.191-4.632-2.032-3.39-3.741-1.65c2.038-2.876,8.195-3.203,7.552-7.81c-1.642-1.817-7.273,3.123-12.145,4.77
	c1.43-2.667,3.655-4.702,5.762-6.824c1.877-1.852,3.828-3.39,4.795-6.153c-3.403-4.333-9.963,6.757-13.896,9.145
	c-0.157-0.218-0.308-0.449-0.46-0.674c1.408-2.205,3.284-4.073,4.834-6.256c0.929-1.361,1.572-3.062,2.038-4.641
	c-2.038-2.263-4.252,1.107-5.339,2.385c-1.986-0.963-4.085-0.209-6.222,1.493c-1.854-2.77-3.655-5.579-5.57-8.301
	c-2.276-3.245-5.586-3.142-7.424-6.93c-1.851-3.81-2.568-8.089-2.568-12.281c-5.058,1.043-3.082,8.227-2.186,11.546
	c-4.043,4.346-8.259,9.703-6.729,16.04c2.054-0.424,3.6-1.72,4.056-3.817c0.511-2.253,3.667-3.053,6.161-4.096
	c0.209,1.56-1.26,1.528-2.144,2.16c-1.414,1.034,0.112,4.253,0.518,5.418c1.353,3.794-1.739,3.239-3.969,5.617
	c-3.902,4.105,2.388,3.306,4.354,3.528c1.864,1.473,3.725,2.876,5.711,4.019c-4.078,6.895-7.704,14.082-10.089,16.451
	c-6.534,6.5-14.206,11.565-21.905,16.566c-3.041-15.963-7.627-31.203-10.702-47.146c-0.106-1.98-0.225-3.964-0.308-5.964
	c-0.675-2.369-1.671-4.349-2.24-6.879c0.495-3.004,2.858-9.09,0.058-11.353c-3.761,0.912-1.687,7.152-3.963,9.37
	c-5.948-0.668-1.835-12.432-7.035-13.879c-2.529,2.677-0.071,9.299,0.055,13.295c-3.008-0.08-4.484-2.555-5.939-4.783
	c-1.459-2.07-1.97-5.951-5.66-4.423c-0.977,3.563,3.092,6.949,4.053,10.519c-4.869-1.297-6.704-5.932-10.57-8.307
	c-2.134,0.289-3.722,1.024-5.271,1.859c2.414,5.608,6.36,9.597,9.005,15.032c3.998,4.648,9.847,7.29,15.083,10.618
	c1.53,7.36,2.256,15.606,2.951,23.875c-0.299-0.931-1.915-1.412-2.622-1.65c-1.137-0.395-2.603-0.985-2.68-1.39
	c-0.087-0.488,0.598-1.701,0.72-2.253c0.122-0.501,0.47-2.536-0.35-2.764c-1.247-0.35-1.755,1.887-2.407,1.964
	c-0.093,0.019-0.842-0.324-1.035-0.533c-0.421-0.449-0.385-1.136-0.929-1.38c-1.469-0.668-2.664,0.385-3.69,1.107
	c-0.746,0.507-2.128,2.077-3.041,1.99c-0.826-0.077-0.983-1.245-1.096-2.045c-0.415-2.667-0.029-3.669-0.17-6.545
	c-0.051-1.306-0.402-3.098-0.473-4.439c-0.077-2.545-0.103-6.282-2.089-6.468c-2.231-0.209-1.591,3.229-1.466,5.29
	c0.202,3.245-0.502,5.858-0.916,8.545c-0.27,1.756-0.356,3.65-0.64,5.579c-0.327,1.984-1.002,3.634-0.922,5.421
	c0.17,3.72,1.758,7.688,1.514,11.703c-0.359,6.073-5.894,11.283-9.305,15.597c-1.844,2.301-3.603,4.895-5.428,7.071
	c-2.858,3.399-6.495,6.018-9.629,9.055c-1.934,1.842-3.937,3.669-5.887,5.527c-0.334-0.892-0.63-1.814-0.967-2.703
	c-2.912-7.861-2.88-19.012-7.289-25.249c-7.363-13.944-16.114-26.395-22.686-41.205c8.418-11.193,15.796-23.284,23.544-35.042
	c-6.197-1.701-7.433,7.107-11.612,8.159c0.665-3.913,1.7-7.482,2.912-10.888c-0.35-0.17-1.475-0.273-2.845-0.17
	c-1.864,1.14-2.353,3.457-2.848,5.826c-3.969,2.054-4.638,7.052-7.109,10.487c-5.647,4.218-9.25,10.3-13.415,15.828
	c0.608,3.791,0.334,5.73-0.183,8.914c6.091,17.994,9.943,37.475,18.55,53.146c1.115,2,3.021,3.634,4.069,5.791
	c2.504,5.017,5.483,12.422,6.354,18.97l0.045,0.263c-3.339,0.552-5.913,1.781-8.282,3.236h-37.333
	c0.614-2.208,1.035-3.781,1.581-4.186c0.665-0.472,2.028-0.279,2.864-0.629c1.389-0.632,2.215-2.369,2.935-3.852
	c0.893-1.887,2.231-3.887,1.684-6.888c-0.051-0.404-0.295-0.501-0.279-1.001c0-1.396,0.755-2.703,1.134-3.926
	c0.421-1.332,0.466-2.902,0.254-4.475c-0.193-1.464,0.167-2.995,0.01-4.712c-0.077-0.668-0.289-1.422-0.492-2.16
	c-0.234-0.719-0.64-1.692-0.499-2.167c0.026-0.186,0.34,0.209,0.457-0.186c0-0.035-0.334-0.562-0.431-1.079
	c-0.308-1.692-0.816-3.274-1.687-3.942c-0.25-0.218-2.077-0.668-1.941-1.175c0.209-0.735,1.758-0.693,1.514-0.912
	c-0.321-0.289-1.62,0.167-1.652-0.42c-0.071-1.265,1.764-1.624,1.633-1.862c-0.106-0.141-1.099,0.16-1.318,0.247
	c-0.46,0.138-1.099,0.562-1.251,0.299c-0.138-0.247,0.502-0.385,0.608-0.44c1.289-0.764-0.019-0.177-0.791-0.472
	c-0.941-0.35-2.276-1.701-3.725-2.423c-0.63-0.318-1.299-0.456-2.362-0.639c-0.826-0.141-1.95-0.501-1.941-1.165
	c0.026-0.896,1.219-0.546,0.909-0.79c-0.356-0.282-1.52-0.218-1.588-0.36c-0.157-0.449,2.128-0.639,1.192-0.835
	c-0.263-0.055-1.228,0.106-1.137,0.087c-0.977,0.244-1.767,0.263-2.67-0.141c-0.755-0.324-0.466-0.581,0.019-0.542
	c0.704,0.035,1.719,0.401,0.884-0.16c-0.592-0.401-1.267-0.488-1.816-0.507c-0.502-0.01-3.252,0.581-2.651,0.055
	c0.691-0.648,2.038-0.613,2.003-0.526c0.122-0.318-0.45-0.263-0.739-0.299c-2.459-0.35-4.391,0.947-6.165,1.306
	c0.254-0.01,2.038-1.502,1.7-1.676c-0.164-0.106-0.72,0.459-0.736,0.459c-1.108,0.745-2.899,0.684-4.545,1.313
	c-0.797,0.302-1.87,1.351-2.33,2.212c-0.051,0.122-0.752,2.122-0.909,1.894c-0.556-0.86,0.457-2.475-0.16-1.839
	c-0.63,0.639-1.051,1.929-0.964,2.825c0.051,0.44,0.778,1.579,0.72,1.737c-0.035,0.064-1.019,0.35-1.308,0.481
	c-1.292,0.491-3.102,1.605-3.358,1.833c-0.993,0.985-1.411,1.945-2.009,3.386c-0.141,0.318-0.887,1.984-0.678,2.311
	c0.244,0.356,0.46-0.607,0.624-0.282c0.087,0.202-0.733,1.974-0.836,2.308c-0.273,0.985-0.324,1.932-0.405,2.712
	c-0.112,0.985-0.334,1.781-0.508,2.622c-0.502,2.722,0.045,6.272-0.327,9.029c-0.282,1.907-0.877,3.643-0.598,5.662
	c0.151,1.095,0.563,1.727,0.598,2.314c0.067,1.634-0.051,5.319,0.151,6.23c0.177,0.87,1.089,2.025,1.166,2.789
	c0.064,0.542-0.067,1.464-0.177,2.552H95.35c-0.167-0.067-0.299-0.234-0.46-0.35c3.516-7.649,5.73-16.011,10.333-23.239
	c4.776-9.549,9.047-19.41,12.139-29.691c2.304-11.934,8.349-22.286,11.808-33.72c4.078-3.438,4.22-9.415,2.686-14.133
	c-0.315-2.42-3.548-0.851-3.812-3.467c-2.478-0.045-3.39-3.624-6.29-2.497c-1.687-1.037-3.866-0.122-5.518,0.472
	c-0.723-0.876-1.543-1.448-2.616-1.387c-1.777,0.456-0.633,2.683-1.44,3.932c-0.334,5.043-1.44,10.58,0.334,15.738
	c-1.315,6.609-2.896,13.196-5.515,19.327c-7.295,12.66-9.385,27.403-18.136,39.465c-1.607,7.633-6.514,13.944-10.928,20.463
	c-1.758-1.22-3.532-2.388-5.435-3.431c-3.716-2.054-7.1-3.727-11.236-4.754c-1.16-0.279-3.374-0.754-3.892-1.406
	c-0.186-0.228-0.434-1.014-0.608-1.493c-2.186-5.537-4.319-10.888-7.816-15.687c-2.372-3.28-4.956-6.246-7.032-9.829
	c-2.109-3.669-3.339-8.204-5.039-12.214c-1.809-4.215-4.325-8.057-4.149-14.338c0.045-1.669,0.502-3.351,0.608-5.081
	c0.077-0.902,0.045-1.849,0.196-2.709c0.132-0.828,0.466-1.599,0.508-2.369c0.077-1.862-0.698-3.126-0.941-4.754
	c-0.35-2.218-0.431-4.882-0.579-7.107c-0.106-1.229-0.454-2.379-0.556-3.354c-0.254-2.228,0.45-7.283-1.803-6.131
	c-1.941,1.008-1.202,4.481-1.344,7.396c-0.077,1.791-0.292,3.39-0.45,5.145c-0.138,1.454-0.369,4.211-1.363,4.349
	c-0.534,0.087-1.344-1.088-1.694-1.512c-0.508-0.61-1.176-1.351-1.803-1.509c-0.842-0.228-1.941,0.44-2.6,0.729
	c-0.913,0.414-2.099,0.526-2.378,1.281c-0.144,0.385-0.071,0.886-0.327,1.114c-0.08,0.045-0.482,0.01-0.784,0.125
	c-0.457,0.157-0.279,0.385-0.621,0.279c-0.132-0.055-0.592-0.982-0.746-1.229c-1.002-1.454-2.276-1.053-1.661,1.316
	c0.431,1.737,0.996,3.001,1.642,4.491c0.415,0.95,0.961,1.833,1.124,2.459c0.087,0.369-0.016,0.735,0.058,1.018
	c0.103,0.44,0.441,0.719,0.527,1.229c0.225,1.226-0.029,2.561,0.032,3.701c0.125,2.648,0.704,4.616,1.462,6.404
	c0.376,0.844,0.701,1.859,1.228,2.722c0.688,1.059,1.828,1.332,2.407,2.658c1.124,2.552,1.43,5.755,2.048,8.493
	c0.746,3.29,1.52,6.555,2.436,9.784c0.614,2.151,1.124,4.317,1.633,6.468c-0.263-0.167-0.553-0.279-0.877-0.324
	c-2.813-0.687-5.255,1.772-7.1,2.892c-0.119-0.244-0.382-0.244-0.579-0.34c-0.791-0.835-0.582-1.814-0.527-2.799
	c-0.263-0.141-0.405,0.132-0.598,0.247c-0.388-0.334-0.861-1.046-1.424-0.613c0.196,1.351-0.157,2.385-0.948,3.287
	c-1.019,0.995-2.407,1.082-3.603,0.34c-3.477-1.191-7.746-0.263-10.086,2.809c-1.241,0.186-2.266,0.799-3.249,1.457V200h1500.047
	L1500.048,199.98L1500.048,199.98z M1479.996,162.53c0.087-0.016,0.039,0.212,0.039,0.327
	C1479.822,162.794,1479.948,162.656,1479.996,162.53z M1479.697,169.419c0,0.112,0.039,0.234,0.087,0.324
	c-0.205,0.254-0.441,0.491-0.627,0.713C1479.187,170.016,1479.344,169.621,1479.697,169.419z M1479.469,160.251
	c-0.039,0.093-0.263-0.177-0.212-0.404C1479.383,159.914,1479.363,160.126,1479.469,160.251z M1479.315,167.095
	c0.47,1.528-0.723,2.385-0.704,3.932c-0.039,0.055-0.067,0.112-0.125,0.157C1477.801,169.849,1478.907,168.202,1479.315,167.095z
	 M1477.978,171.499c0.019,0.01,0.019,0.019,0.039,0.026h-0.039C1477.978,171.518,1477.978,171.508,1477.978,171.499z
	 M1453.816,129.302c-0.909,0.546-2.542,0.096-3.301-0.347C1451.605,128.875,1452.75,129.225,1453.816,129.302z M1370.821,154.512
	c0.196-1.034,0.106-1.772-0.039-2.481c0.244-0.78,0.476-1.56,0.723-2.379c0.138,0.44,0.263,0.783,0.263,0.774
	c0.138-0.591,0.087-1.139-0.019-1.65c1.006-3.476,2.06-7.071,3.496-10.108c2.266,7.136,4.609,14.207,7.449,20.761l-7.714-1.005
	c0,0-1.983,0.369-5.393,0.966C1369.992,158.072,1370.537,155.95,1370.821,154.512z M1331.881,142.661
	c0.038,0.035-0.067,0.225-0.106,0.34c-0.013-0.029-0.013-0.035-0.032-0.064c-0.019-0.045-0.067-0.077-0.087-0.112
	c0-0.071,0-0.141,0-0.202C1331.727,142.623,1331.814,142.588,1331.881,142.661z M1155.114,171.524h-10.069
	c-3.615-2.298-9.886-5.816-15.53-9.36c-0.157-3.942,0.916-8.246-0.177-12.153c0.369-4.414-1.073-8.214-1.408-12.255
	c2.109,2.334,4.219,3.335,5.204-0.019c0.929-3.098,4.142-4.86,7.698-5.858c-0.302,1.454-0.508,3.059-0.527,4.815
	c-0.231,0.308-0.422,0.571-0.633,0.87c-12.493,18.136,3.39,21.917,7.257,22.549C1150.952,167.743,1154.712,171.155,1155.114,171.524
	z M1140.902,143.579c0.422,2.369,1.125,4.969,2.16,7.758c1.199,3.28,2.443,6.086,3.729,8.493
	C1140.179,157.199,1137.386,153.093,1140.902,143.579z M1128.568,124.041c0.948-2.844,1.562-2.921,4.412-3.467
	c0.704-0.719,1.153-1.666,1.719-2.507c0.723,2.34,2.041,4.176,5.11,0.106c4.375-5.784,7.167,0.488,7.839,2.244
	c-0.422,0.289-1.035,0.815-1.796,1.599c-1.671,0.928-4.162,2.167-6.27,2.488c-3.515,0.536-5.782,5.685-8.925,8.898
	c-0.771,0.79-1.671,0.815-2.581,0.488c-0.196-1.387-0.778-2.648-1.131-3.999C1127.462,127.938,1127.931,125.97,1128.568,124.041z
	 M1067.282,171.524h-0.986c-1.845-0.992-3.793-2.481-3.866-4.597c1.99,2.606,3.78,3.341,5.73,2.966
	C1067.879,170.436,1067.584,170.982,1067.282,171.524z M1070.64,153.398c1.173,0.62,2.912,0.27,3.793,1.499
	c0,2.863,0.46,6.336,0.685,9.248l-3.899,2.212c-0.244,0.141-0.369,0.34-0.579,0.498c-4.625-1.079-6.013-6.747-5.557-11.466
	c1.141,2.43,2.336,5.274,4.939,6.449c-0.547-5.604-4.532-9.906-6.132-15.51c-0.302-1.932-0.388-3.958-0.422-6.012
	C1064.878,145.107,1066.054,150.063,1070.64,153.398z M1062.468,128.092c0.087,0.912,0.177,1.833,0.244,2.732
	c-0.205-1.072-0.382-2.151-0.791-3.159c-0.189-0.491-0.489-0.892-0.736-1.351C1061.696,126.946,1062.097,127.524,1062.468,128.092z
	 M1056.072,166.645C1056.303,165.506,1056.512,167.743,1056.072,166.645L1056.072,166.645z M1055.894,167.811
	C1056.13,166.7,1056.335,168.953,1055.894,167.811L1055.894,167.811z M1055.721,168.989
	C1055.953,167.856,1056.159,170.083,1055.721,168.989L1055.721,168.989z M1055.493,169.602c0.314,0.379,0.47,1.133,0.527,1.923
	h-0.547C1055.544,170.882,1055.631,170.215,1055.493,169.602z M1039.363,110.389c1.62-0.369,2.918,0.01,4.13,0.498
	c3.39,2.003,7.311,5.056,10.822,8.265c-1.035-0.597-2.122-1.139-3.265-1.589c-2.478-0.992-4.532-2.719-6.784-4.218
	c-2.667,0.151-5.268,0.151-8.047,0.465c-1.193-0.684-2.122-1.095-3.089-1.528C1035.201,111.59,1037.261,110.88,1039.363,110.389z
	 M974.512,59.982c-0.897-2.401-1.054-5.165-1.389-7.726c0.225,0.568,0.46,1.146,0.752,1.708c0.37,2.282,0.848,4.519,0.791,6.144
	C974.619,60.068,974.57,60.023,974.512,59.982z M998.167,166.462c-0.177-0.006-0.35-0.026-0.527-0.045
	c0.205-0.061,0.454-0.167,0.665-0.183C998.266,166.324,998.196,166.382,998.167,166.462z M998.253,144.571
	c0.189-0.571,0.454-1.159,0.685-1.765C999.514,143.011,998.97,144.529,998.253,144.571z M998.234,141.448
	c-0.81-0.263,0.665-0.835,0.736-1.278C999.777,140.411,998.305,141.018,998.234,141.448z M994.387,136.229
	c1.264-1.737,2.109-4.15,2.845-6.712c5.097-5.062,10.07-10.284,15.128-15.305c3.272-1.201,5.907-0.449,8.819-0.061
	c-0.189,0.132-0.315,0.177-0.527,0.315c-4.406,3.037-9.837,10.872-14.7,11.889c-4.2,0.87-1.475,2.327-2.654,5.694
	c-0.598,1.791-2.022,3.142-3.655,4.064c-2.305,1.313-4.872,2.009-7.414,2.683C992.98,137.965,993.751,137.121,994.387,136.229z
	 M991.662,139.455c3.018-0.282,6.065-0.735,8.787-1.99c-2.199,3.2-7.909,6.815-11.953,4.901
	C989.621,141.442,990.676,140.475,991.662,139.455z M968.856,161.892c1.263-3.624,2.919-6.853,4.689-9.973
	c5.135-2.706,10.371-5.739,14.727-9.337c1.251,1.477-0.157,2.51,2.738,3.492c1.533,0.607,3.025,0.51,4.452-0.34
	c-0.302,2.074-3.464,2.449-4.991,1.964c0.803,0.045,1.581-0.103,2.266-0.552c-0.067,0-4.622,0-4.062,0.148
	c0.508,0,1.035,0.132,1.475,0.404c-2.773,0.359-5.782-2.273-4.622,2.764c2.478,1.265,5.782,1.008,8.469,0.902
	c-2.475,1.098-5.518,1.852-8.224,1.326c1.18,1.544,2.003,3.65,3.866,4.58c-2.054,0.34,2.16,1.746,1.408,2.439
	c-1.054-0.077-2.128,0.112-3.108,0.603c0.646,0.141,1.153,0.449,1.543,0.957c-1.719,0.745-3.622,0.687-5.361,1.438
	c3.464,2.555,7.449-3.001,10.615-0.796c-0.35,1.396-1.514,2.703-2.864,3.945c-7.771-0.684-16.044-1.287-24.599-1.849
	C967.802,163.304,968.368,162.636,968.856,161.892z M730.328,106.781c0.823,2.282,0.98,4.616,0.842,6.924
	c-0.685-1.255-1.369-2.51-2.003-3.784C729.409,108.695,729.676,107.51,730.328,106.781z M732.089,155.934
	c0.466,0.902,0.922,1.807,1.389,2.709c-2.008-0.873-3.892-1.98-5.592-3.396C729.322,155.414,730.71,155.671,732.089,155.934z
	 M721.364,140.755c0.263,0.379,0.547,0.735,0.816,1.107c-0.534-0.228-1.041-0.517-1.607-0.703
	C720.873,141.047,721.081,140.877,721.364,140.755z M717.144,126.84c0.409,1.772,0.759,3.553,1.141,5.325
	c-1.915,0.966-3.918,1.765-6.052,2.16c-1.369,0.263-2.68,0.148-3.841-0.536C711.584,131.568,714.458,129.244,717.144,126.84z
	 M646.854,159.17c0.752,0.571,1.652,1.396,1.857,1.974l-0.295,0.019c-0.302-0.247-1.395-1.512-2.478-1.643
	c-0.038-0.045-0.051-0.087-0.087-0.132C646.149,159.276,646.427,159.134,646.854,159.17z M631.475,121.313l0.228,1.682
	c-1.195-0.228-1.578-1.634-1.755-2.956C630.636,120.074,631.373,120.594,631.475,121.313z M628.647,116.838l-0.582,0.835
	l-0.103-0.077C628.184,117.345,628.419,117.092,628.647,116.838z M603.383,104.397c0.669,0.35,1.53,0.603,2.109,1.088
	c-1.089,1.579-3.285,0.896-4.869,0.764c-1.192,0.132-2.462-0.16-3.69,0.254C598.922,105.607,601.133,104.429,603.383,104.397z
	 M586.288,167.445c0.087,0.103,0.157,0.228,0.244,0.334c-0.138,0.035-0.27,0.064-0.422,0.087
	C586.166,167.724,586.236,167.586,586.288,167.445z M580.875,154.843c0.141,0.44,0.334,0.799,0.508,1.229
	c0,0.122,0.019,0.282,0.019,0.424c-1.353-0.318-2.88-0.985-3.883-2.074c-0.527-0.735-1.247-1.544-0.688-2.507l1.038-0.931
	C578.118,152.67,579.947,153.536,580.875,154.843z M566.821,162.935c2.915-6.054,5.884-12.066,8.16-18.373
	c0.723-1.165,1.257-2.439,1.87-3.669c0.177,0.966-0.466,2.074-0.106,3.142c0.511,0.844,0.409,2.35,1.671,2.622v0.077
	c-0.157,1.791-0.823,3.669-2.478,4.722c-1.353,3.669,3.512,5.306,5.605,7.248c0.826,1.281,0.457,2.728-0.299,3.922l0.138,0.087
	l1.27-1.887c0.489-1.001-0.318-1.913-0.46-2.799c0.752,1.923,1.53,3.852,2.128,5.826c-0.986,1.615-1.899,3.297-2.813,4.956
	c-3.947,0.828-8.115,1.72-12.579,2.712h-2.744c0.861-2.439,1.44-4.991,0.993-7.8C567.085,163.461,566.979,163.182,566.821,162.935z
	 M560.866,57c2.89-3.3,12.116,2.318,3.31,3.765c-2.776,0.446-5.586-0.096-8.291-0.713C555.708,56.804,558.471,56.631,560.866,57z
	 M472.288,161.953c0.061-0.125,0.112-0.302,0.164-0.424c0.388-0.103,0.759-0.225,1.179-0.244c0.396-0.019,0.791-0.106,1.193-0.141
	c1.864,3.512,3.828,6.985,5.982,10.377h-13.781C469.013,168.427,470.714,165.111,472.288,161.953z M448.525,112.168
	c1.035-3.072,2.494-5.983,3.272-9.145c0.366-1.419,0.579-2.86,0.665-4.317c0.404,6.519,1.353,12.82,2.635,18.961
	c-0.897,0.218-1.783,0.581-2.747,0.459c-0.922,0.78-1.838,0.883-2.776,0.851C448.241,117.066,447.537,115.028,448.525,112.168z
	 M462.158,36.274C461.737,37.204,461.454,35.205,462.158,36.274L462.158,36.274z M462.704,32.425
	c-1.231,0.796-1.687,1.903-1.389,3.306C453.776,33.083,461.756,29.045,462.704,32.425z M379.281,138.017
	c-0.177,0.966-0.508,1.897-0.604,2.87c-0.186,1.791-0.254,3.669-0.202,5.537c-1.437-0.44-2.845-0.78-4.187-1.586
	C376.189,142.719,377.848,140.447,379.281,138.017z M309.845,79.655c0.742-1.387,0.701-2.754-0.106-4.105
	c0.563,0,1.108-0.096,1.655-0.318C311.638,76.952,311.848,78.952,309.845,79.655z M298.23,127.96
	c6.742-7.02,14.135-15.231,22.825-19.863c2.442-1.297,4.657-2.526,6.801-3.791c3.902,7.588,6.235,16.11,9.156,24.244
	c-3.516-3.569-7.449-6.433-12.387-7.607c-2.144-0.106-4.606,0.282-6.675,0.026c-0.177,0.52-1.251,0.501-1.414,1.008
	c-5.929,0.754-12.785,1.316-15.729,5.476c-2.195,3.264-2.311,7.81-2.976,12.002c-0.598,0.536-1.099,1.123-1.14,1.984
	c-0.913,0.279-1.318,0.873-2.442,1.034c-1.054,0.43-1.636-0.985-2.346-0.228c0.829,2.475,4.927,1.406,6.64-0.026
	c-0.376,1.781-1.713,3.062-3.541,4.025c-0.205,0.334,0.019,0.912,0.141,1.422c-0.611,0.209-0.932-0.132-1.617,0.209
	c0.492,1.756,2.529,0.985,4.181,0.809c-0.382,3.297-2.667,5.508-1.202,9.896c2.362,4.677,4.824,9.177,7.723,12.939h-9.911
	c-0.132-0.167-0.289-0.308-0.422-0.481c-2.077-2.719-3.252-5.791-4.42-8.895c0-0.026,0.006-0.061,0.019-0.087
	c-0.019-0.077-0.087-0.087-0.116-0.157c-0.563-1.473-1.124-2.95-1.783-4.404c-0.63-1.39-1.45-2.545-2.285-3.659
	c0.077-1.432,0.141-2.915,0.228-4.311c-0.096-3.219-0.421-6.121-1.134-8.657C288.235,136.088,295.149,131.138,298.23,127.96z
	 M246.349,130.663c1.009-1.823,2.88-2.892,3.828-4.561c0.633-1.123,1.238-2.931,1.562-4.369c0.614-2.613-0.157-10.583,0-11.44
	c0.087-0.526,1.353-2.632,1.896-2.693c0.263-0.035,0.803,0.876,1.488,1.518c0.34,0.334,1.14,0.456,1.54,0.209
	c0.572-0.35,0.441-0.754,0.842-0.912c0.282-0.106,1.028,0.177,1.581,0.177c1.231,0,2.285-0.244,2.304-1.406
	c0.791,9.476,1.562,18.97,3.371,27.306c-0.308-0.055-0.649-0.209-0.974-0.327c-0.502-0.299-0.476-1.287-1.009-1.528
	c-0.492-0.449-1.825,0.019-2.128-0.186c-0.473-0.103-0.157-1.14-0.752-1.079c-0.302-0.411-0.829-0.064-1.231,0
	c-0.566-0.851-1.43-0.693-1.899,0.132c-1.14,0.334-2.077-0.196-3.217-0.334c-0.954,0.385-1.051,1.859-2.035,2.208
	c-1.006-0.263-2.061-0.491-3.076-0.745c-0.405,0.096-0.334,0.854-0.791,0.94c-0.421-0.196-0.845-0.44-1.357-0.51
	c-0.457,0.019-0.771,0.228-1.137,0.369C245.506,132.473,245.866,131.526,246.349,130.663z M225.134,166.777
	c0.376,0.684,0.746,1.335,0.704,2.054c-0.177,0.912-1.257,0.581-1.504,1.265c-0.411-0.318-0.771-0.674-1.07-1.123
	C223.912,168.25,224.507,167.506,225.134,166.777z M221.158,171.428c0.308-0.334,0.566-0.687,0.871-1.018
	c0.045,0.122,0.122,0.202,0.167,0.334c-0.247,0.395-0.659,0.6-1.083,0.78h-0.045C221.1,171.489,221.136,171.454,221.158,171.428z"/>
</svg>
